<?xml version="1.0" encoding="UTF-8"?>
<!DOCTYPE svg PUBLIC "-//W3C//DTD SVG 1.1//EN" "http://www.w3.org/Graphics/SVG/1.1/DTD/svg11.dtd">
<!-- Creator: CorelDRAW 2017 -->
<svg xmlns="http://www.w3.org/2000/svg" xml:space="preserve" width="350px" height="3158px" version="1.1" style="shape-rendering:geometricPrecision; text-rendering:geometricPrecision; image-rendering:optimizeQuality; fill-rule:evenodd; clip-rule:evenodd"
viewBox="0 0 31.53 284.52"
 xmlns:xlink="http://www.w3.org/1999/xlink">
 <defs>
  <style type="text/css">
   <![CDATA[
    .fil0 {fill:#CCCCCC}
    .fil2 {fill:red}
    .fil1 {fill:#FF7986}
   ]]>
  </style>
 </defs>
 <g id="Слой_x0020_1">
  <metadata id="CorelCorpID_0Corel-Layer"/>
  <g id="_2281803446128">
   <g>
    <g>
     <path class="fil0" d="M1.71 15.87c0.03,3.67 1.47,7.15 4.04,9.76l0.67 -0.66c-1.03,-1.05 -1.89,-2.27 -2.51,-3.6l-0.01 -0.02 0.33 -0.81 -0.81 -0.34 -0.01 -0.02c-0.49,-1.38 -0.75,-2.84 -0.76,-4.31l-0.94 0z"/>
    </g>
    <g>
     <path class="fil0" d="M5.9 25.78c2.62,2.57 6.09,4.01 9.76,4.04l0 -0.94c-1.47,-0.01 -2.93,-0.26 -4.31,-0.76l-0.02 -0.01 -0.34 -0.81 -0.82 0.33 -0.02 -0.01c-1.32,-0.62 -2.54,-1.47 -3.58,-2.5l-0.67 0.66z"/>
    </g>
    <g>
     <path class="fil0" d="M15.87 29.82c3.67,-0.03 7.15,-1.47 9.76,-4.04l-0.66 -0.66c-1.05,1.03 -2.26,1.87 -3.59,2.5l-0.02 0.01 -0.82 -0.33 -0.33 0.81 -0.03 0.01c-1.38,0.5 -2.84,0.75 -4.31,0.76l0 0.94z"/>
    </g>
    <g>
     <path class="fil0" d="M25.78 25.63c2.57,-2.61 4.01,-6.09 4.04,-9.76l-0.94 0c-0.01,1.47 -0.26,2.93 -0.76,4.31l-0.01 0.02 -0.81 0.34 0.34 0.81 -0.01 0.02c-0.63,1.33 -1.48,2.55 -2.51,3.6l0.66 0.66z"/>
    </g>
    <g>
     <path class="fil0" d="M29.82 15.66c-0.03,-3.67 -1.47,-7.14 -4.04,-9.76l-0.66 0.67c1.03,1.04 1.88,2.26 2.51,3.59l0.01 0.02 -0.34 0.8 0.81 0.34 0.01 0.02c0.49,1.39 0.75,2.85 0.76,4.32l0.94 0z"/>
    </g>
    <g>
     <path class="fil0" d="M5.75 5.9c-2.57,2.62 -4.01,6.09 -4.04,9.76l0.94 0c0.01,-1.47 0.27,-2.93 0.77,-4.32l0 -0.02 0.81 -0.34 -0.33 -0.8 0.01 -0.02c0.63,-1.33 1.48,-2.55 2.51,-3.59l-0.67 -0.67z"/>
    </g>
    <g>
     <path class="fil0" d="M25.63 5.75c-2.61,-2.57 -6.09,-4.01 -9.76,-4.04l0 0.94c1.48,0.01 2.93,0.27 4.32,0.77l0.02 0 0.33 0.81 0.81 -0.34 0.02 0.01c1.33,0.63 2.55,1.48 3.6,2.52l0.66 -0.67z"/>
    </g>
    <g>
     <path class="fil0" d="M15.66 1.71c-3.67,0.03 -7.14,1.47 -9.76,4.04l0.67 0.67c1.05,-1.04 2.26,-1.89 3.6,-2.52l0.02 -0.01 0.8 0.34 0.33 -0.81 0.02 0c1.39,-0.5 2.85,-0.76 4.32,-0.77l0 -0.94z"/>
    </g>
   </g>
   <g>
    <path class="fil0" d="M4.54 26.83c-2.78,-2.82 -4.51,-6.68 -4.54,-10.95l1.31 0c0.03,3.91 1.61,7.44 4.15,10.03l-0.92 0.92z"/>
    <path class="fil0" d="M15.65 31.53c-4.27,-0.03 -8.13,-1.75 -10.95,-4.53l0.93 -0.93c2.58,2.54 6.12,4.12 10.02,4.15l0 1.31z"/>
    <path class="fil0" d="M26.83 27c-2.82,2.78 -6.68,4.5 -10.95,4.53l0 -1.31c3.91,-0.03 7.44,-1.61 10.03,-4.15l0.92 0.93z"/>
    <path class="fil0" d="M31.53 15.88c-0.03,4.27 -1.75,8.13 -4.53,10.95l-0.93 -0.92c2.54,-2.59 4.12,-6.12 4.15,-10.03l1.31 0z"/>
    <g>
     <path class="fil0" d="M27 4.7c2.78,2.82 4.5,6.68 4.53,10.95l-1.31 0c-0.03,-3.9 -1.61,-7.44 -4.15,-10.02l0.93 -0.93z"/>
     <path class="fil0" d="M0 15.65c0.03,-4.27 1.76,-8.13 4.54,-10.95l0.92 0.93c-2.54,2.58 -4.12,6.12 -4.15,10.02l-1.31 0z"/>
     <path class="fil0" d="M15.65 1.31c-3.9,0.03 -7.44,1.61 -10.02,4.15l-0.93 -0.92c2.82,-2.78 6.68,-4.51 10.95,-4.54l0 1.31z"/>
     <path class="fil0" d="M15.88 0c4.27,0.03 8.13,1.76 10.95,4.54l-0.92 0.92c-2.59,-2.54 -6.12,-4.12 -10.03,-4.15l0 -1.31z"/>
    </g>
   </g>
  </g>
  <g id="_2281803456528">
   <g>
    <g>
     <path class="fil0" d="M1.71 47.5c0.03,3.66 1.47,7.14 4.04,9.75l0.67 -0.66c-1.03,-1.05 -1.89,-2.26 -2.51,-3.59l-0.01 -0.03 0.33 -0.81 -0.81 -0.33 -0.01 -0.03c-0.49,-1.38 -0.75,-2.83 -0.76,-4.3l-0.94 0z"/>
    </g>
    <g>
     <path class="fil0" d="M5.9 57.4c2.62,2.58 6.09,4.02 9.76,4.04l0 -0.93c-1.47,-0.01 -2.93,-0.27 -4.31,-0.77l-0.02 0 -0.34 -0.82 -0.82 0.34 -0.02 -0.01c-1.32,-0.63 -2.54,-1.48 -3.58,-2.51l-0.67 0.66z"/>
    </g>
    <g>
     <path class="fil0" d="M15.87 61.44c3.67,-0.02 7.15,-1.46 9.76,-4.04l-0.66 -0.66c-1.05,1.03 -2.26,1.88 -3.59,2.51l-0.02 0.01 -0.82 -0.34 -0.33 0.82 -0.03 0c-1.38,0.5 -2.84,0.76 -4.31,0.77l0 0.93z"/>
    </g>
    <g>
     <path class="fil0" d="M25.78 57.25c2.57,-2.61 4.01,-6.09 4.04,-9.75l-0.94 0c-0.01,1.47 -0.26,2.92 -0.76,4.3l-0.01 0.03 -0.81 0.33 0.34 0.82 -0.01 0.02c-0.63,1.33 -1.48,2.54 -2.51,3.59l0.66 0.66z"/>
    </g>
    <g>
     <path class="fil0" d="M29.82 47.28c-0.03,-3.66 -1.47,-7.14 -4.04,-9.75l-0.66 0.66c1.03,1.05 1.88,2.26 2.51,3.59l0.01 0.02 -0.34 0.81 0.81 0.33 0.01 0.02c0.49,1.39 0.75,2.85 0.76,4.32l0.94 0z"/>
    </g>
    <g>
     <path class="fil0" d="M5.75 37.53c-2.57,2.61 -4.01,6.09 -4.04,9.75l0.94 0c0.01,-1.47 0.27,-2.93 0.77,-4.32l0 -0.02 0.81 -0.33 -0.33 -0.81 0.01 -0.02c0.63,-1.33 1.48,-2.54 2.51,-3.59l-0.67 -0.66z"/>
    </g>
    <g>
     <path class="fil1" d="M25.63 37.38c-2.61,-2.57 -6.09,-4.02 -9.76,-4.04l0 0.93c1.48,0.02 2.93,0.27 4.32,0.77l0.02 0.01 0.33 0.8 0.81 -0.33 0.02 0.01c1.33,0.63 2.55,1.48 3.6,2.51l0.66 -0.66z"/>
    </g>
    <g>
     <path class="fil0" d="M15.66 33.34c-3.67,0.02 -7.14,1.47 -9.76,4.04l0.67 0.66c1.05,-1.03 2.26,-1.88 3.6,-2.51l0.02 -0.01 0.8 0.33 0.33 -0.8 0.02 -0.01c1.39,-0.5 2.85,-0.75 4.32,-0.77l0 -0.93z"/>
    </g>
   </g>
   <g>
    <path class="fil0" d="M4.54 58.46c-2.78,-2.82 -4.51,-6.69 -4.54,-10.95l1.31 0c0.03,3.9 1.61,7.44 4.15,10.02l-0.92 0.93z"/>
    <path class="fil0" d="M15.65 63.16c-4.27,-0.03 -8.13,-1.76 -10.95,-4.54l0.93 -0.93c2.58,2.55 6.12,4.13 10.02,4.16l0 1.31z"/>
    <path class="fil0" d="M26.83 58.62c-2.82,2.78 -6.68,4.51 -10.95,4.54l0 -1.31c3.91,-0.03 7.44,-1.61 10.03,-4.16l0.92 0.93z"/>
    <path class="fil0" d="M31.53 47.51c-0.03,4.26 -1.75,8.13 -4.53,10.95l-0.93 -0.93c2.54,-2.58 4.12,-6.12 4.15,-10.02l1.31 0z"/>
    <g>
     <path class="fil0" d="M27 36.32c2.78,2.82 4.5,6.69 4.53,10.96l-1.31 0c-0.03,-3.91 -1.61,-7.45 -4.15,-10.03l0.93 -0.93z"/>
     <path class="fil0" d="M0 47.28c0.03,-4.27 1.76,-8.14 4.54,-10.96l0.92 0.93c-2.54,2.58 -4.12,6.12 -4.15,10.03l-1.31 0z"/>
     <path class="fil0" d="M15.65 32.93c-3.9,0.03 -7.44,1.61 -10.02,4.16l-0.93 -0.93c2.82,-2.78 6.68,-4.51 10.95,-4.54l0 1.31z"/>
     <path class="fil2" d="M15.88 31.62c4.27,0.03 8.13,1.76 10.95,4.54l-0.92 0.93c-2.59,-2.55 -6.12,-4.13 -10.03,-4.16l0 -1.31z"/>
    </g>
   </g>
  </g>
  <g id="_2281803437488">
   <g>
    <g>
     <path class="fil0" d="M5.75 69.15c-2.57,2.61 -4.01,6.09 -4.04,9.76l0.94 0c0.01,-1.47 0.27,-2.93 0.77,-4.32l0 -0.02 0.82 -0.34 -0.34 -0.81 0.01 -0.02c0.63,-1.33 1.48,-2.54 2.51,-3.58l-0.67 -0.67z"/>
    </g>
    <g>
     <path class="fil0" d="M1.71 79.12c0.03,3.67 1.47,7.15 4.04,9.76l0.67 -0.67c-1.03,-1.04 -1.88,-2.25 -2.51,-3.58l-0.01 -0.02 0.34 -0.82 -0.82 -0.34 -0.01 -0.02c-0.49,-1.38 -0.75,-2.84 -0.76,-4.31l-0.94 0z"/>
    </g>
    <g>
     <path class="fil0" d="M5.9 89.03c2.62,2.57 6.1,4.01 9.76,4.04l0 -0.94c-1.47,-0.01 -2.92,-0.27 -4.31,-0.76l-0.02 -0.01 -0.34 -0.81 -0.81 0.33 -0.02 -0.01c-1.33,-0.63 -2.54,-1.47 -3.59,-2.51l-0.67 0.67z"/>
    </g>
    <g>
     <path class="fil0" d="M15.87 93.07c3.67,-0.03 7.15,-1.47 9.76,-4.04l-0.66 -0.67c-1.05,1.03 -2.26,1.88 -3.59,2.51l-0.02 0.01 -0.81 -0.33 -0.34 0.81 -0.02 0.01c-1.38,0.49 -2.85,0.75 -4.32,0.76l0 0.94z"/>
    </g>
    <g>
     <path class="fil0" d="M25.78 88.88c2.57,-2.61 4.01,-6.09 4.04,-9.76l-0.94 0c-0.01,1.47 -0.27,2.93 -0.76,4.31l-0.01 0.02 -0.8 0.34 0.33 0.81 -0.01 0.02c-0.63,1.33 -1.48,2.54 -2.51,3.59l0.66 0.67z"/>
    </g>
    <g>
     <path class="fil0" d="M15.66 64.96c-3.66,0.03 -7.14,1.47 -9.76,4.04l0.67 0.66c1.05,-1.03 2.26,-1.88 3.59,-2.51l0.03 -0.01 0.8 0.33 0.34 -0.8 0.02 -0.01c1.38,-0.49 2.84,-0.75 4.31,-0.76l0 -0.94z"/>
    </g>
    <g>
     <path class="fil1" d="M29.82 78.91c-0.03,-3.67 -1.47,-7.15 -4.04,-9.76l-0.66 0.67c1.03,1.04 1.88,2.26 2.51,3.59l0.01 0.02 -0.33 0.8 0.8 0.33 0.01 0.03c0.49,1.38 0.75,2.85 0.76,4.32l0.94 0z"/>
    </g>
    <g>
     <path class="fil0" d="M25.63 69c-2.61,-2.57 -6.09,-4.01 -9.76,-4.04l0 0.94c1.48,0.01 2.94,0.27 4.32,0.76l0.03 0.01 0.33 0.81 0.8 -0.34 0.02 0.01c1.33,0.63 2.55,1.48 3.6,2.51l0.66 -0.66z"/>
    </g>
   </g>
   <g>
    <path class="fil0" d="M0 78.9c0.03,-3.96 1.54,-7.91 4.54,-10.95l0.92 0.92c-2.74,2.79 -4.12,6.4 -4.15,10.03l-1.31 0z"/>
    <path class="fil0" d="M4.54 90.08c-3,-3.04 -4.51,-6.99 -4.54,-10.95l1.31 0c0.03,3.63 1.41,7.24 4.15,10.03l-0.92 0.92z"/>
    <path class="fil0" d="M15.65 94.78c-3.96,-0.03 -7.91,-1.54 -10.95,-4.54l0.93 -0.92c2.78,2.74 6.4,4.12 10.02,4.15l0 1.31z"/>
    <path class="fil0" d="M26.83 90.24c-3.03,3 -6.99,4.51 -10.95,4.54l0 -1.31c3.63,-0.03 7.25,-1.41 10.03,-4.15l0.92 0.92z"/>
    <g>
     <path class="fil0" d="M31.53 79.13c-0.03,3.96 -1.54,7.91 -4.53,10.95l-0.93 -0.92c2.74,-2.79 4.12,-6.4 4.15,-10.03l1.31 0z"/>
     <path class="fil0" d="M4.7 67.78c3.04,-2.99 6.99,-4.5 10.95,-4.53l0 1.31c-3.62,0.03 -7.24,1.41 -10.02,4.15l-0.93 -0.93z"/>
     <path class="fil0" d="M25.91 68.71c-2.78,-2.74 -6.4,-4.12 -10.03,-4.15l0 -1.31c3.96,0.03 7.92,1.54 10.95,4.53l-0.92 0.93z"/>
     <path class="fil2" d="M27 67.95c2.99,3.04 4.5,6.99 4.53,10.95l-1.31 0c-0.03,-3.63 -1.41,-7.24 -4.15,-10.03l0.93 -0.92z"/>
    </g>
   </g>
  </g>
  <g id="_2281803444016">
   <g>
    <g>
     <path class="fil0" d="M15.66 96.59c-3.67,0.02 -7.14,1.46 -9.76,4.04l0.67 0.66c1.05,-1.03 2.26,-1.88 3.59,-2.51l0.02 -0.01 0.81 0.33 0.34 -0.81 0.02 -0.01c1.39,-0.49 2.84,-0.75 4.31,-0.76l0 -0.93z"/>
    </g>
    <g>
     <path class="fil0" d="M5.75 100.78c-2.57,2.61 -4.01,6.09 -4.04,9.75l0.94 0c0.01,-1.47 0.27,-2.92 0.76,-4.31l0.01 -0.02 0.82 -0.34 -0.34 -0.82 0.01 -0.02c0.63,-1.32 1.48,-2.54 2.51,-3.58l-0.67 -0.66z"/>
    </g>
    <g>
     <path class="fil0" d="M1.71 110.74c0.03,3.67 1.47,7.15 4.04,9.76l0.67 -0.66c-1.03,-1.05 -1.88,-2.26 -2.51,-3.59l-0.01 -0.02 0.34 -0.81 -0.82 -0.34 -0.01 -0.02c-0.49,-1.39 -0.75,-2.84 -0.76,-4.32l-0.94 0z"/>
    </g>
    <g>
     <path class="fil0" d="M5.9 120.65c2.62,2.57 6.09,4.01 9.76,4.04l0 -0.94c-1.47,-0.01 -2.92,-0.26 -4.31,-0.76l-0.02 0 -0.34 -0.82 -0.81 0.34 -0.02 -0.01c-1.33,-0.63 -2.54,-1.48 -3.59,-2.51l-0.67 0.66z"/>
    </g>
    <g>
     <path class="fil0" d="M15.87 124.69c3.67,-0.03 7.15,-1.47 9.76,-4.04l-0.66 -0.66c-1.05,1.03 -2.26,1.88 -3.59,2.51l-0.02 0.01 -0.81 -0.34 -0.33 0.81 -0.03 0.01c-1.38,0.5 -2.84,0.75 -4.32,0.76l0 0.94z"/>
    </g>
    <g>
     <path class="fil0" d="M25.63 100.63c-2.61,-2.58 -6.09,-4.02 -9.76,-4.04l0 0.93c1.48,0.01 2.94,0.27 4.32,0.77l0.03 0.01 0.33 0.8 0.81 -0.33 0.02 0.01c1.33,0.63 2.54,1.48 3.59,2.51l0.66 -0.66z"/>
    </g>
    <g>
     <path class="fil1" d="M25.78 120.5c2.57,-2.61 4.01,-6.09 4.04,-9.76l-0.94 0c-0.01,1.48 -0.26,2.94 -0.76,4.32l-0.01 0.02 -0.8 0.34 0.33 0.8 -0.01 0.02c-0.63,1.33 -1.48,2.55 -2.51,3.6l0.66 0.66z"/>
    </g>
    <g>
     <path class="fil0" d="M29.82 110.53c-0.03,-3.66 -1.47,-7.14 -4.04,-9.75l-0.66 0.66c1.03,1.05 1.88,2.27 2.51,3.6l0.01 0.02 -0.33 0.8 0.8 0.33 0.01 0.02c0.5,1.39 0.75,2.85 0.76,4.32l0.94 0z"/>
    </g>
   </g>
   <g>
    <path class="fil0" d="M4.7 99.41c2.82,-2.78 6.68,-4.51 10.95,-4.54l0 1.31c-3.9,0.03 -7.44,1.61 -10.02,4.16l-0.93 -0.93z"/>
    <path class="fil0" d="M0 110.52c0.03,-4.26 1.76,-8.13 4.54,-10.95l0.92 0.93c-2.54,2.58 -4.12,6.12 -4.15,10.02l-1.31 0z"/>
    <path class="fil0" d="M4.54 121.71c-2.78,-2.83 -4.51,-6.69 -4.54,-10.96l1.31 0c0.03,3.91 1.61,7.45 4.15,10.03l-0.92 0.93z"/>
    <path class="fil0" d="M15.65 126.41c-4.27,-0.03 -8.13,-1.76 -10.95,-4.54l0.93 -0.93c2.58,2.55 6.12,4.12 10.02,4.16l0 1.31z"/>
    <g>
     <path class="fil0" d="M26.83 121.87c-2.82,2.78 -6.68,4.51 -10.95,4.54l0 -1.31c3.91,-0.04 7.44,-1.61 10.03,-4.16l0.92 0.93z"/>
     <path class="fil0" d="M15.88 94.87c4.27,0.03 8.13,1.76 10.95,4.54l-0.92 0.93c-2.59,-2.55 -6.12,-4.13 -10.03,-4.16l0 -1.31z"/>
     <path class="fil0" d="M30.22 110.52c-0.03,-3.9 -1.61,-7.44 -4.15,-10.02l0.93 -0.93c2.78,2.82 4.5,6.69 4.53,10.95l-1.31 0z"/>
     <path class="fil2" d="M31.53 110.75c-0.03,4.27 -1.75,8.13 -4.53,10.96l-0.93 -0.93c2.54,-2.58 4.12,-6.12 4.15,-10.03l1.31 0z"/>
    </g>
   </g>
  </g>
  <g id="_2282172672896">
   <g>
    <g>
     <path class="fil0" d="M25.63 132.25c-2.61,-2.57 -6.09,-4.01 -9.76,-4.04l0 0.94c1.47,0.01 2.94,0.27 4.32,0.76l0.02 0.01 0.34 0.81 0.81 -0.34 0.02 0.02c1.33,0.62 2.54,1.47 3.59,2.5l0.66 -0.66z"/>
    </g>
    <g>
     <path class="fil0" d="M15.66 128.21c-3.66,0.03 -7.14,1.47 -9.76,4.04l0.67 0.66c1.05,-1.03 2.26,-1.88 3.58,-2.51l0.03 -0.01 0.81 0.34 0.34 -0.81 0.02 -0.01c1.39,-0.5 2.84,-0.75 4.31,-0.76l0 -0.94z"/>
    </g>
    <g>
     <path class="fil0" d="M5.75 132.4c-2.57,2.61 -4.01,6.09 -4.04,9.76l0.94 0c0.01,-1.47 0.27,-2.93 0.76,-4.31l0.01 -0.02 0.82 -0.34 -0.34 -0.82 0.01 -0.02c0.63,-1.33 1.48,-2.54 2.51,-3.59l-0.67 -0.66z"/>
    </g>
    <g>
     <path class="fil0" d="M1.71 142.37c0.03,3.66 1.47,7.14 4.04,9.75l0.67 -0.66c-1.03,-1.05 -1.88,-2.25 -2.51,-3.58l-0.01 -0.02 0.34 -0.82 -0.82 -0.33 0 -0.02c-0.5,-1.39 -0.76,-2.85 -0.77,-4.32l-0.94 0z"/>
    </g>
    <g>
     <path class="fil0" d="M5.9 152.27c2.62,2.58 6.1,4.02 9.76,4.05l0 -0.94c-1.47,-0.01 -2.93,-0.27 -4.31,-0.76l-0.02 -0.01 -0.34 -0.81 -0.8 0.34 -0.03 -0.01c-1.33,-0.63 -2.54,-1.48 -3.59,-2.52l-0.67 0.66z"/>
    </g>
    <g>
     <path class="fil0" d="M29.82 142.16c-0.03,-3.67 -1.47,-7.15 -4.04,-9.76l-0.66 0.66c1.03,1.05 1.88,2.27 2.51,3.6l0.01 0.02 -0.33 0.81 0.8 0.33 0.01 0.02c0.49,1.39 0.75,2.85 0.76,4.32l0.94 0z"/>
    </g>
    <g>
     <path class="fil1" d="M15.87 156.32c3.67,-0.03 7.15,-1.47 9.76,-4.05l-0.66 -0.66c-1.05,1.04 -2.27,1.88 -3.6,2.51l-0.02 0.01 -0.8 -0.33 -0.33 0.8 -0.03 0.01c-1.38,0.5 -2.84,0.76 -4.32,0.77l0 0.94z"/>
    </g>
    <g>
     <path class="fil0" d="M25.78 152.12c2.57,-2.61 4.01,-6.09 4.04,-9.75l-0.94 0c-0.01,1.47 -0.27,2.93 -0.76,4.32l-0.01 0.02 -0.8 0.33 0.33 0.81 -0.01 0.02c-0.63,1.33 -1.48,2.54 -2.51,3.59l0.66 0.66z"/>
    </g>
   </g>
   <g>
    <path class="fil0" d="M15.88 126.5c3.96,0.02 7.92,1.54 10.95,4.53l-0.92 0.93c-2.78,-2.74 -6.4,-4.13 -10.03,-4.15l0 -1.31z"/>
    <path class="fil0" d="M4.7 131.03c3.04,-2.99 6.99,-4.51 10.95,-4.53l0 1.31c-3.62,0.02 -7.24,1.41 -10.02,4.15l-0.93 -0.93z"/>
    <path class="fil0" d="M0 142.15c0.03,-3.96 1.54,-7.92 4.54,-10.96l0.92 0.93c-2.74,2.78 -4.12,6.4 -4.15,10.03l-1.31 0z"/>
    <path class="fil0" d="M4.54 153.33c-3,-3.04 -4.51,-6.99 -4.54,-10.95l1.31 0c0.03,3.62 1.41,7.24 4.15,10.02l-0.92 0.93z"/>
    <g>
     <path class="fil0" d="M15.65 158.03c-3.96,-0.03 -7.91,-1.54 -10.95,-4.54l0.93 -0.92c2.78,2.74 6.4,4.12 10.02,4.15l0 1.31z"/>
     <path class="fil0" d="M27 131.19c2.99,3.04 4.5,7 4.53,10.96l-1.31 0c-0.03,-3.63 -1.41,-7.25 -4.15,-10.03l0.93 -0.93z"/>
     <path class="fil0" d="M26.07 152.4c2.74,-2.78 4.12,-6.4 4.15,-10.02l1.31 0c-0.03,3.96 -1.54,7.91 -4.53,10.95l-0.93 -0.93z"/>
     <path class="fil2" d="M26.83 153.49c-3.03,3 -6.99,4.51 -10.95,4.54l0 -1.31c3.63,-0.03 7.25,-1.41 10.03,-4.15l0.92 0.92z"/>
    </g>
   </g>
  </g>
  <g id="_2282172616768">
   <g>
    <g>
     <path class="fil0" d="M29.82 173.78c-0.03,-3.67 -1.47,-7.14 -4.04,-9.76l-0.66 0.67c1.03,1.05 1.88,2.26 2.51,3.59l0.01 0.02 -0.34 0.81 0.81 0.34 0.01 0.02c0.5,1.39 0.75,2.84 0.76,4.31l0.94 0z"/>
    </g>
    <g>
     <path class="fil0" d="M25.63 163.87c-2.61,-2.57 -6.09,-4.01 -9.76,-4.04l0 0.94c1.47,0.01 2.93,0.27 4.31,0.76l0.03 0.01 0.33 0.82 0.82 -0.34 0.02 0.01c1.33,0.63 2.54,1.48 3.59,2.51l0.66 -0.67z"/>
    </g>
    <g>
     <path class="fil0" d="M15.66 159.83c-3.67,0.03 -7.14,1.47 -9.76,4.04l0.67 0.67c1.04,-1.03 2.26,-1.88 3.58,-2.51l0.02 -0.01 0.82 0.34 0.34 -0.82 0.02 -0.01c1.38,-0.49 2.84,-0.75 4.31,-0.76l0 -0.94z"/>
    </g>
    <g>
     <path class="fil0" d="M5.75 164.02c-2.57,2.62 -4.01,6.09 -4.04,9.76l0.94 0c0.01,-1.47 0.27,-2.92 0.76,-4.31l0.01 -0.02 0.81 -0.34 -0.33 -0.81 0.01 -0.02c0.62,-1.33 1.48,-2.54 2.51,-3.59l-0.67 -0.67z"/>
    </g>
    <g>
     <path class="fil0" d="M1.71 173.99c0.03,3.67 1.47,7.15 4.04,9.76l0.67 -0.66c-1.03,-1.05 -1.88,-2.27 -2.51,-3.59l-0.01 -0.02 0.33 -0.81 -0.81 -0.33 0 -0.03c-0.5,-1.38 -0.76,-2.84 -0.77,-4.32l-0.94 0z"/>
    </g>
    <g>
     <path class="fil0" d="M25.78 183.75c2.57,-2.61 4.01,-6.09 4.04,-9.76l-0.94 0c-0.01,1.48 -0.27,2.94 -0.76,4.32l-0.01 0.03 -0.81 0.33 0.34 0.81 -0.01 0.02c-0.63,1.32 -1.48,2.54 -2.51,3.59l0.66 0.66z"/>
    </g>
    <g>
     <path class="fil1" d="M5.9 183.9c2.62,2.57 6.09,4.01 9.76,4.04l0 -0.94c-1.47,-0.01 -2.93,-0.27 -4.32,-0.76l-0.02 -0.01 -0.33 -0.8 -0.8 0.33 -0.02 -0.01c-1.34,-0.63 -2.55,-1.48 -3.6,-2.51l-0.67 0.66z"/>
    </g>
    <g>
     <path class="fil0" d="M15.87 187.94c3.67,-0.03 7.15,-1.47 9.76,-4.04l-0.66 -0.66c-1.05,1.03 -2.27,1.88 -3.6,2.51l-0.02 0.01 -0.81 -0.33 -0.33 0.8 -0.02 0.01c-1.39,0.49 -2.84,0.75 -4.32,0.76l0 0.94z"/>
    </g>
   </g>
   <g>
    <path class="fil0" d="M27 162.82c2.78,2.82 4.5,6.68 4.53,10.95l-1.31 0c-0.03,-3.9 -1.61,-7.44 -4.15,-10.03l0.93 -0.92z"/>
    <path class="fil0" d="M15.88 158.12c4.27,0.03 8.13,1.76 10.95,4.54l-0.92 0.92c-2.59,-2.54 -6.12,-4.12 -10.03,-4.15l0 -1.31z"/>
    <path class="fil0" d="M4.7 162.66c2.82,-2.78 6.68,-4.51 10.95,-4.54l0 1.31c-3.9,0.03 -7.44,1.61 -10.02,4.15l-0.93 -0.92z"/>
    <path class="fil0" d="M0 173.77c0.03,-4.27 1.76,-8.13 4.54,-10.95l0.92 0.92c-2.54,2.59 -4.12,6.13 -4.15,10.03l-1.31 0z"/>
    <g>
     <path class="fil0" d="M4.54 184.95c-2.78,-2.82 -4.51,-6.68 -4.54,-10.95l1.31 0c0.03,3.91 1.61,7.44 4.15,10.03l-0.92 0.92z"/>
     <path class="fil0" d="M31.53 174c-0.03,4.27 -1.75,8.13 -4.53,10.95l-0.93 -0.92c2.54,-2.59 4.12,-6.12 4.15,-10.03l1.31 0z"/>
     <path class="fil0" d="M15.88 188.34c3.91,-0.03 7.44,-1.61 10.03,-4.15l0.92 0.93c-2.82,2.78 -6.68,4.5 -10.95,4.53l0 -1.31z"/>
     <path class="fil2" d="M15.65 189.65c-4.27,-0.03 -8.13,-1.75 -10.95,-4.53l0.93 -0.93c2.58,2.54 6.12,4.12 10.02,4.15l0 1.31z"/>
    </g>
   </g>
  </g>
  <g id="_2282172625024">
   <g>
    <g>
     <path class="fil0" d="M25.78 215.37c2.57,-2.61 4.01,-6.09 4.04,-9.75l-0.94 0c-0.01,1.47 -0.27,2.93 -0.76,4.31l-0.01 0.03 -0.81 0.33 0.33 0.81 -0.01 0.03c-0.62,1.32 -1.47,2.53 -2.5,3.58l0.66 0.66z"/>
    </g>
    <g>
     <path class="fil0" d="M29.82 205.4c-0.03,-3.66 -1.47,-7.14 -4.04,-9.75l-0.66 0.66c1.03,1.05 1.88,2.26 2.51,3.59l0.01 0.02 -0.34 0.82 0.81 0.33 0.01 0.03c0.49,1.38 0.75,2.84 0.76,4.3l0.94 0z"/>
    </g>
    <g>
     <path class="fil0" d="M25.63 195.5c-2.61,-2.57 -6.09,-4.02 -9.76,-4.04l0 0.93c1.47,0.02 2.93,0.27 4.31,0.77l0.02 0 0.34 0.82 0.82 -0.34 0.02 0.01c1.33,0.63 2.54,1.48 3.59,2.51l0.66 -0.66z"/>
    </g>
    <g>
     <path class="fil0" d="M15.66 191.46c-3.66,0.02 -7.14,1.47 -9.76,4.04l0.67 0.66c1.04,-1.03 2.25,-1.88 3.58,-2.51l0.02 -0.01 0.81 0.34 0.34 -0.81 0.02 -0.01c1.39,-0.5 2.85,-0.75 4.32,-0.77l0 -0.93z"/>
    </g>
    <g>
     <path class="fil0" d="M5.75 195.65c-2.57,2.61 -4.01,6.09 -4.04,9.75l0.94 0c0.01,-1.46 0.27,-2.92 0.76,-4.31l0.01 -0.02 0.81 -0.33 -0.34 -0.81 0.01 -0.02c0.63,-1.34 1.48,-2.55 2.52,-3.6l-0.67 -0.66z"/>
    </g>
    <g>
     <path class="fil0" d="M15.87 219.56c3.67,-0.02 7.15,-1.47 9.76,-4.04l-0.66 -0.66c-1.05,1.03 -2.27,1.88 -3.6,2.51l-0.02 0.01 -0.81 -0.33 -0.33 0.81 -0.03 0c-1.38,0.5 -2.84,0.75 -4.31,0.77l0 0.93z"/>
    </g>
    <g>
     <path class="fil1" d="M1.71 205.62c0.03,3.66 1.47,7.14 4.04,9.75l0.67 -0.66c-1.04,-1.05 -1.89,-2.26 -2.52,-3.59l-0.01 -0.03 0.34 -0.8 -0.8 -0.33 -0.01 -0.02c-0.5,-1.39 -0.76,-2.85 -0.77,-4.32l-0.94 0z"/>
    </g>
    <g>
     <path class="fil0" d="M5.9 215.52c2.62,2.57 6.1,4.02 9.76,4.04l0 -0.93c-1.47,-0.02 -2.93,-0.27 -4.32,-0.77l-0.02 -0.01 -0.34 -0.8 -0.8 0.33 -0.02 -0.01c-1.33,-0.63 -2.54,-1.48 -3.59,-2.51l-0.67 0.66z"/>
    </g>
   </g>
   <g>
    <path class="fil0" d="M31.53 205.62c-0.03,3.97 -1.54,7.92 -4.53,10.96l-0.93 -0.93c2.74,-2.78 4.12,-6.4 4.15,-10.03l1.31 0z"/>
    <path class="fil0" d="M27 194.44c2.99,3.04 4.5,6.99 4.53,10.96l-1.31 0c-0.03,-3.63 -1.41,-7.25 -4.15,-10.03l0.93 -0.93z"/>
    <path class="fil0" d="M15.88 189.74c3.96,0.03 7.92,1.54 10.95,4.54l-0.92 0.93c-2.78,-2.74 -6.4,-4.13 -10.03,-4.16l0 -1.31z"/>
    <path class="fil0" d="M4.7 194.28c3.04,-3 6.99,-4.51 10.95,-4.54l0 1.31c-3.62,0.03 -7.24,1.42 -10.02,4.16l-0.93 -0.93z"/>
    <g>
     <path class="fil0" d="M0 205.4c0.03,-3.97 1.54,-7.92 4.54,-10.96l0.92 0.93c-2.74,2.78 -4.12,6.4 -4.15,10.03l-1.31 0z"/>
     <path class="fil0" d="M26.83 216.74c-3.03,3 -6.99,4.51 -10.95,4.54l0 -1.31c3.63,-0.03 7.25,-1.42 10.03,-4.16l0.92 0.93z"/>
     <path class="fil0" d="M5.63 215.81c2.78,2.74 6.4,4.13 10.02,4.16l0 1.31c-3.96,-0.03 -7.91,-1.54 -10.95,-4.54l0.93 -0.93z"/>
     <path class="fil2" d="M4.54 216.58c-3,-3.04 -4.51,-6.99 -4.54,-10.96l1.31 0c0.03,3.63 1.41,7.25 4.15,10.03l-0.92 0.93z"/>
    </g>
   </g>
  </g>
  <g id="_2282172630816">
   <g>
    <g>
     <path class="fil0" d="M15.87 251.19c3.67,-0.03 7.15,-1.47 9.76,-4.04l-0.66 -0.67c-1.05,1.03 -2.27,1.89 -3.6,2.52l-0.02 0.01 -0.81 -0.34 -0.34 0.81 -0.02 0.01c-1.38,0.49 -2.84,0.75 -4.31,0.76l0 0.94z"/>
    </g>
    <g>
     <path class="fil0" d="M25.78 247c2.57,-2.62 4.01,-6.09 4.04,-9.76l-0.94 0c-0.01,1.47 -0.26,2.93 -0.76,4.31l-0.01 0.02 -0.81 0.34 0.33 0.82 -0.01 0.02c-0.63,1.32 -1.47,2.54 -2.5,3.58l0.66 0.67z"/>
    </g>
    <g>
     <path class="fil0" d="M29.82 237.03c-0.03,-3.67 -1.47,-7.15 -4.04,-9.76l-0.66 0.66c1.03,1.05 1.87,2.26 2.5,3.59l0.01 0.02 -0.33 0.82 0.81 0.33 0.01 0.03c0.5,1.38 0.75,2.84 0.76,4.31l0.94 0z"/>
    </g>
    <g>
     <path class="fil0" d="M25.63 227.12c-2.61,-2.57 -6.09,-4.01 -9.76,-4.04l0 0.94c1.47,0.01 2.93,0.26 4.31,0.76l0.02 0.01 0.34 0.81 0.81 -0.34 0.02 0.01c1.33,0.63 2.55,1.48 3.6,2.51l0.66 -0.66z"/>
    </g>
    <g>
     <path class="fil0" d="M15.66 223.08c-3.67,0.03 -7.14,1.47 -9.76,4.04l0.67 0.66c1.04,-1.03 2.26,-1.88 3.59,-2.51l0.02 -0.01 0.8 0.34 0.34 -0.81 0.02 -0.01c1.39,-0.49 2.85,-0.75 4.32,-0.76l0 -0.94z"/>
    </g>
    <g>
     <path class="fil0" d="M5.9 247.15c2.62,2.57 6.09,4.01 9.76,4.04l0 -0.94c-1.47,-0.01 -2.93,-0.27 -4.32,-0.77l-0.02 0 -0.34 -0.81 -0.8 0.33 -0.02 -0.01c-1.33,-0.63 -2.55,-1.48 -3.59,-2.51l-0.67 0.67z"/>
    </g>
    <g>
     <path class="fil1" d="M5.75 227.27c-2.57,2.61 -4.01,6.09 -4.04,9.76l0.94 0c0.01,-1.47 0.27,-2.93 0.77,-4.32l0 -0.02 0.81 -0.33 -0.34 -0.81 0.01 -0.02c0.63,-1.33 1.48,-2.55 2.52,-3.6l-0.67 -0.66z"/>
    </g>
    <g>
     <path class="fil0" d="M1.71 237.24c0.03,3.67 1.47,7.14 4.04,9.76l0.67 -0.67c-1.04,-1.05 -1.89,-2.26 -2.52,-3.59l-0.01 -0.03 0.34 -0.8 -0.81 -0.33 0 -0.02c-0.5,-1.39 -0.76,-2.85 -0.77,-4.32l-0.94 0z"/>
    </g>
   </g>
   <g>
    <path class="fil0" d="M26.83 248.36c-2.82,2.78 -6.68,4.51 -10.95,4.54l0 -1.31c3.91,-0.03 7.44,-1.61 10.03,-4.15l0.92 0.92z"/>
    <path class="fil0" d="M31.53 237.25c-0.03,4.27 -1.75,8.13 -4.53,10.95l-0.93 -0.92c2.54,-2.59 4.12,-6.13 4.15,-10.03l1.31 0z"/>
    <path class="fil0" d="M27 226.07c2.78,2.82 4.5,6.68 4.53,10.95l-1.31 0c-0.03,-3.91 -1.61,-7.44 -4.15,-10.03l0.93 -0.92z"/>
    <path class="fil0" d="M15.88 221.37c4.27,0.03 8.13,1.75 10.95,4.53l-0.92 0.93c-2.59,-2.54 -6.12,-4.12 -10.03,-4.15l0 -1.31z"/>
    <g>
     <path class="fil0" d="M4.7 225.9c2.82,-2.78 6.68,-4.5 10.95,-4.53l0 1.31c-3.9,0.03 -7.44,1.61 -10.02,4.15l-0.93 -0.93z"/>
     <path class="fil0" d="M15.65 252.9c-4.27,-0.03 -8.13,-1.76 -10.95,-4.54l0.93 -0.92c2.58,2.54 6.12,4.12 10.02,4.15l0 1.31z"/>
     <path class="fil0" d="M1.31 237.25c0.03,3.9 1.61,7.44 4.15,10.03l-0.92 0.92c-2.78,-2.82 -4.51,-6.68 -4.54,-10.95l1.31 0z"/>
     <path class="fil2" d="M0 237.02c0.03,-4.27 1.76,-8.13 4.54,-10.95l0.92 0.92c-2.54,2.59 -4.12,6.12 -4.15,10.03l-1.31 0z"/>
    </g>
   </g>
  </g>
  <g id="_2282172637056">
   <g>
    <g>
     <path class="fil0" d="M5.9 278.77c2.62,2.57 6.1,4.01 9.76,4.04l0 -0.94c-1.47,-0.01 -2.93,-0.27 -4.32,-0.76l-0.02 -0.01 -0.34 -0.81 -0.81 0.34 -0.02 -0.01c-1.33,-0.63 -2.54,-1.48 -3.58,-2.51l-0.67 0.66z"/>
    </g>
    <g>
     <path class="fil0" d="M15.87 282.81c3.67,-0.03 7.15,-1.47 9.76,-4.04l-0.66 -0.66c-1.05,1.03 -2.26,1.88 -3.59,2.51l-0.02 0.01 -0.82 -0.34 -0.34 0.81 -0.02 0.01c-1.38,0.5 -2.84,0.75 -4.31,0.76l0 0.94z"/>
    </g>
    <g>
     <path class="fil0" d="M25.78 278.62c2.57,-2.61 4.01,-6.09 4.04,-9.76l-0.94 0c-0.01,1.47 -0.27,2.93 -0.76,4.31l-0.01 0.02 -0.81 0.34 0.34 0.82 -0.01 0.02c-0.63,1.33 -1.48,2.54 -2.51,3.59l0.66 0.66z"/>
    </g>
    <g>
     <path class="fil0" d="M29.82 268.65c-0.03,-3.66 -1.47,-7.14 -4.04,-9.75l-0.66 0.66c1.03,1.05 1.88,2.25 2.5,3.58l0.01 0.02 -0.33 0.82 0.81 0.33 0.01 0.02c0.49,1.39 0.75,2.85 0.76,4.32l0.94 0z"/>
    </g>
    <g>
     <path class="fil0" d="M25.63 258.75c-2.61,-2.58 -6.09,-4.02 -9.76,-4.05l0 0.94c1.47,0.01 2.93,0.27 4.31,0.76l0.03 0.01 0.33 0.81 0.81 -0.34 0.02 0.01c1.33,0.63 2.55,1.48 3.6,2.52l0.66 -0.66z"/>
    </g>
    <g>
     <path class="fil0" d="M1.71 268.86c0.03,3.67 1.47,7.15 4.04,9.76l0.67 -0.66c-1.04,-1.05 -1.89,-2.27 -2.52,-3.6l-0.01 -0.02 0.34 -0.81 -0.81 -0.33 -0.01 -0.02c-0.49,-1.39 -0.75,-2.85 -0.76,-4.32l-0.94 0z"/>
    </g>
    <g>
     <path class="fil1" d="M15.66 254.7c-3.66,0.03 -7.14,1.47 -9.76,4.05l0.67 0.66c1.05,-1.04 2.26,-1.88 3.59,-2.51l0.02 -0.01 0.8 0.33 0.34 -0.8 0.02 -0.01c1.39,-0.5 2.85,-0.76 4.32,-0.77l0 -0.94z"/>
    </g>
    <g>
     <path class="fil0" d="M5.75 258.9c-2.57,2.61 -4.01,6.09 -4.04,9.75l0.94 0c0.01,-1.47 0.27,-2.93 0.77,-4.32l0.01 -0.02 0.8 -0.33 -0.34 -0.81 0.01 -0.02c0.63,-1.33 1.48,-2.54 2.52,-3.59l-0.67 -0.66z"/>
    </g>
   </g>
   <g>
    <path class="fil0" d="M15.65 284.52c-3.96,-0.02 -7.91,-1.54 -10.95,-4.53l0.93 -0.93c2.78,2.74 6.4,4.13 10.02,4.15l0 1.31z"/>
    <path class="fil0" d="M26.83 279.99c-3.03,2.99 -6.99,4.51 -10.95,4.53l0 -1.31c3.63,-0.02 7.25,-1.41 10.03,-4.15l0.92 0.93z"/>
    <path class="fil0" d="M31.53 268.87c-0.03,3.96 -1.54,7.92 -4.53,10.96l-0.93 -0.93c2.74,-2.78 4.12,-6.4 4.15,-10.03l1.31 0z"/>
    <path class="fil0" d="M27 257.69c2.99,3.04 4.5,6.99 4.53,10.95l-1.31 0c-0.03,-3.62 -1.41,-7.24 -4.15,-10.02l0.93 -0.93z"/>
    <g>
     <path class="fil0" d="M15.88 252.99c3.96,0.03 7.92,1.54 10.95,4.54l-0.92 0.92c-2.78,-2.74 -6.4,-4.12 -10.03,-4.15l0 -1.31z"/>
     <path class="fil0" d="M4.54 279.83c-3,-3.04 -4.51,-7 -4.54,-10.96l1.31 0c0.03,3.63 1.41,7.25 4.15,10.03l-0.92 0.93z"/>
     <path class="fil0" d="M5.46 258.62c-2.74,2.78 -4.12,6.4 -4.15,10.02l-1.31 0c0.03,-3.96 1.54,-7.91 4.54,-10.95l0.92 0.93z"/>
     <path class="fil2" d="M4.7 257.53c3.04,-3 6.99,-4.51 10.95,-4.54l0 1.31c-3.62,0.03 -7.24,1.41 -10.02,4.15l-0.93 -0.92z"/>
    </g>
   </g>
  </g>
 </g>
</svg>
